<svg width="209" height="48" viewBox="0 0 209 48" fill="none" xmlns="http://www.w3.org/2000/svg">
<path d="M76.424 22.904L76.472 25.432L72.36 19.8H70.088V31H73.064V28.28L73.016 25.4L77.096 31H79.4V19.8H76.424V22.904ZM84.5484 26.68H88.5644V24.104H84.5484V22.424H88.9004V19.8H81.5724V31H89.0284V28.328H84.5484V26.68ZM93.926 19.8L89.862 30.664V31H92.95L93.51 29.272H97.126L97.654 31H100.774V30.664L96.694 19.8H93.926ZM94.214 26.888L95.318 23.72L96.422 26.888H94.214ZM108.283 26.84C109.659 26.312 110.443 25.128 110.443 23.528C110.443 21.224 108.859 19.8 106.235 19.8H101.979V31H104.971V27.032L107.627 31H110.923V30.664L108.283 26.84ZM104.955 22.552H106.155C106.971 22.552 107.451 22.984 107.451 23.768C107.451 24.552 106.971 24.968 106.155 24.968H104.955V22.552Z" fill="white"/>
<path d="M115.649 19.8V22.552H118.465V31H121.489V22.552H124.289V19.8H115.649ZM127.073 21.816C128.001 21.816 128.673 21.192 128.673 20.312C128.673 19.432 128.001 18.808 127.073 18.808C126.129 18.808 125.473 19.432 125.473 20.312C125.473 21.192 126.129 21.816 127.073 21.816ZM128.497 31V22.52H125.665V31H128.497ZM135.644 22.344C134.62 22.344 133.708 22.696 133.004 23.272L132.908 22.52H130.524V33.672H133.356V30.504C134.012 30.936 134.796 31.176 135.644 31.176C138.172 31.176 139.82 29.224 139.82 26.76C139.82 24.184 138.076 22.344 135.644 22.344ZM135.164 28.616C134.092 28.616 133.324 27.848 133.324 26.76C133.324 25.672 134.092 24.904 135.164 24.904C136.236 24.904 137.004 25.672 137.004 26.76C137.004 27.848 136.236 28.616 135.164 28.616ZM146.441 22.344C145.417 22.344 144.505 22.696 143.801 23.272L143.705 22.52H141.321V33.672H144.153V30.504C144.809 30.936 145.593 31.176 146.441 31.176C148.969 31.176 150.617 29.224 150.617 26.76C150.617 24.184 148.873 22.344 146.441 22.344ZM145.961 28.616C144.889 28.616 144.121 27.848 144.121 26.76C144.121 25.672 144.889 24.904 145.961 24.904C147.033 24.904 147.801 25.672 147.801 26.76C147.801 27.848 147.033 28.616 145.961 28.616ZM153.526 21.816C154.454 21.816 155.126 21.192 155.126 20.312C155.126 19.432 154.454 18.808 153.526 18.808C152.582 18.808 151.926 19.432 151.926 20.312C151.926 21.192 152.582 21.816 153.526 21.816ZM154.95 31V22.52H152.118V31H154.95ZM162.273 22.36C161.233 22.36 160.305 22.744 159.681 23.48L159.585 22.52H156.977V31H159.809V26.392C159.809 25.432 160.417 24.888 161.345 24.888C162.177 24.888 162.641 25.4 162.641 26.344V31H165.489V26.024C165.489 23.816 164.465 22.36 162.273 22.36ZM173.463 23.224C172.775 22.648 171.895 22.328 170.887 22.328C168.567 22.328 166.855 24.104 166.855 26.424C166.855 28.808 168.599 30.44 170.887 30.44C171.735 30.44 172.503 30.216 173.127 29.816V30.024C173.127 31.032 172.343 31.528 171.303 31.528C170.599 31.528 170.007 31.304 169.863 30.76H167.127C167.351 32.904 169.079 33.88 171.399 33.88C174.023 33.88 175.943 32.44 175.943 29.608V22.52H173.559L173.463 23.224ZM171.399 28.168C170.343 28.168 169.671 27.464 169.671 26.488C169.671 25.512 170.343 24.824 171.399 24.824C172.455 24.824 173.143 25.512 173.143 26.488C173.143 27.464 172.455 28.168 171.399 28.168ZM189.459 25.096C190.115 24.568 190.499 23.752 190.499 22.84C190.499 21.016 189.139 19.8 187.155 19.8H182.291V31H187.235C189.491 31 190.947 29.704 190.947 27.784C190.947 26.648 190.387 25.656 189.459 25.096ZM186.675 22.264C187.299 22.264 187.651 22.6 187.651 23.176C187.651 23.736 187.299 24.056 186.675 24.056H185.155V22.264H186.675ZM185.155 28.424V26.408H186.979C187.603 26.408 187.971 26.792 187.971 27.416C187.971 28.024 187.603 28.424 186.979 28.424H185.155ZM196.479 31.192C199.183 31.192 201.135 29.336 201.135 26.76C201.135 24.168 199.183 22.328 196.479 22.328C193.775 22.328 191.823 24.168 191.823 26.76C191.823 29.336 193.775 31.192 196.479 31.192ZM196.479 28.616C195.439 28.616 194.655 27.848 194.655 26.76C194.655 25.672 195.439 24.904 196.479 24.904C197.535 24.904 198.303 25.672 198.303 26.76C198.303 27.848 197.535 28.616 196.479 28.616ZM207.181 28.744C206.413 28.744 205.981 28.488 205.981 27.64V24.856H207.853V22.52H205.981V20.504L203.133 20.792V22.52H201.741V24.856H203.133V28.04C203.133 30.2 204.413 31.176 206.365 31.176C206.861 31.176 207.389 31.112 207.965 31V28.696C207.693 28.728 207.421 28.744 207.181 28.744Z" fill="#6D71FF"/>
<circle cx="23.9841" cy="24.0159" r="23.9841" transform="rotate(-90 23.9841 24.0159)" fill="url(#paint0_linear_560_50)"/>
<mask id="mask0_560_50" style="mask-type:alpha" maskUnits="userSpaceOnUse" x="0" y="0" width="48" height="48">
<circle cx="24.0159" cy="23.9842" r="23.9841" transform="rotate(-90 24.0159 23.9842)" fill="url(#paint1_linear_560_50)"/>
</mask>
<g mask="url(#mask0_560_50)">
<rect x="23.1897" y="16.2021" width="0.869142" height="3.15064" rx="0.434571" fill="#C2C4FF"/>
<g filter="url(#filter0_i_560_50)">
<circle cx="38.5083" cy="28.9133" r="3.58521" fill="#6D71FF"/>
</g>
<circle cx="9.06629" cy="28.9133" r="3.58521" fill="#6D71FF"/>
<circle cx="23.6244" cy="22.5032" r="3.58521" fill="#6D71FF"/>
<g filter="url(#filter1_i_560_50)">
<rect x="8.0885" y="20.5479" width="31.1805" height="16.8396" rx="8.41982" fill="white"/>
</g>
<rect x="8.22011" y="20.6795" width="30.9173" height="16.5764" rx="8.28821" stroke="#797CFF" stroke-width="0.263223"/>
<g filter="url(#filter2_f_560_50)">
<ellipse cx="31.2294" cy="29.0222" rx="5.21485" ry="5.3235" fill="#C6C7FF" fill-opacity="0.8"/>
</g>
<g filter="url(#filter3_f_560_50)">
<ellipse cx="16.1824" cy="31.0321" rx="4.50868" ry="4.72596" fill="#C6C7FF" fill-opacity="0.8"/>
</g>
<g filter="url(#filter4_i_560_50)">
<rect x="11.6737" y="23.8071" width="24.0101" height="10.3211" rx="5.16053" fill="#DEDFFF"/>
</g>
<rect x="11.8053" y="23.9387" width="23.7468" height="10.0578" rx="5.02892" stroke="#6D71FF" stroke-width="0.263223"/>
<circle cx="17.0515" cy="28.9677" r="1.03211" fill="#6D71FF"/>
<circle cx="30.0886" cy="28.9677" r="1.03211" fill="#6D71FF"/>
<circle cx="23.6786" cy="14.4095" r="1.03211" fill="#6D71FF"/>
<circle cx="24.2218" cy="14.0834" r="0.162964" fill="#DEDFFF"/>
<path d="M21.7775 30.543C21.8636 31.8636 25.0298 32.1141 25.4713 30.543" stroke="#6D71FF" stroke-width="1.05289" stroke-linecap="round"/>
<g filter="url(#filter5_i_560_50)">
<path d="M30.7538 55.3556C27.7539 60.5517 20.2539 60.5517 17.2539 55.3556L14.2415 50.138C11.2415 44.9418 14.9915 38.4467 20.9915 38.4467L27.0162 38.4467C33.0162 38.4467 36.7662 44.9418 33.7662 50.138L30.7538 55.3556Z" fill="#FDFDFF"/>
</g>
<path d="M17.3679 55.2897L14.3555 50.0722C11.4062 44.9638 15.0928 38.5783 20.9915 38.5783L27.0162 38.5783C32.9149 38.5783 36.6016 44.9638 33.6522 50.0722L30.6399 55.2898C27.6905 60.3982 20.3172 60.3981 17.3679 55.2897Z" stroke="#6D71FF" stroke-width="0.263223"/>
</g>
<path d="M37.9777 12.8409C38.0199 12.6966 38.2243 12.6966 38.2665 12.8409L38.8847 14.955C38.8991 15.0043 38.9377 15.0428 38.9869 15.0572L41.101 15.6754C41.2453 15.7176 41.2453 15.922 41.101 15.9642L38.9869 16.5825C38.9377 16.5969 38.8991 16.6354 38.8847 16.6847L38.2665 18.7988C38.2243 18.9431 38.0199 18.9431 37.9777 18.7988L37.3594 16.6847C37.345 16.6354 37.3065 16.5969 37.2573 16.5825L35.1432 15.9642C34.9989 15.922 34.9989 15.7176 35.1432 15.6754L37.2573 15.0572C37.3065 15.0428 37.345 15.0043 37.3594 14.955L37.9777 12.8409Z" fill="white"/>
<path d="M19.3797 4.19784C19.4219 4.05356 19.6263 4.05356 19.6685 4.19784L20.2867 6.31195C20.3011 6.3612 20.3396 6.39971 20.3889 6.41411L22.503 7.03238C22.6473 7.07457 22.6473 7.27897 22.503 7.32116L20.3889 7.93943C20.3396 7.95383 20.3011 7.99234 20.2867 8.04159L19.6685 10.1557C19.6263 10.3 19.4219 10.3 19.3797 10.1557L18.7614 8.04159C18.747 7.99234 18.7085 7.95383 18.6592 7.93943L16.5451 7.32116C16.4008 7.27897 16.4008 7.07457 16.5451 7.03238L18.6592 6.41411C18.7085 6.39971 18.747 6.3612 18.7614 6.31195L19.3797 4.19784Z" fill="white"/>
<path d="M9.55321 14.286C9.58041 14.193 9.71213 14.193 9.73932 14.286L10.1378 15.6484C10.147 15.6801 10.1719 15.7049 10.2036 15.7142L11.566 16.1127C11.659 16.1399 11.659 16.2716 11.566 16.2988L10.2036 16.6972C10.1719 16.7065 10.147 16.7313 10.1378 16.763L9.73932 18.1255C9.71213 18.2185 9.58041 18.2185 9.55321 18.1255L9.15478 16.763C9.14549 16.7313 9.12068 16.7065 9.08894 16.6972L7.72651 16.2988C7.63353 16.2716 7.63353 16.1399 7.72651 16.1127L9.08894 15.7142C9.12068 15.7049 9.14549 15.6801 9.15478 15.6484L9.55321 14.286Z" fill="white"/>
<defs>
<filter id="filter0_i_560_50" x="34.9231" y="25.3281" width="7.17041" height="7.17041" filterUnits="userSpaceOnUse" color-interpolation-filters="sRGB">
<feFlood flood-opacity="0" result="BackgroundImageFix"/>
<feBlend mode="normal" in="SourceGraphic" in2="BackgroundImageFix" result="shape"/>
<feColorMatrix in="SourceAlpha" type="matrix" values="0 0 0 0 0 0 0 0 0 0 0 0 0 0 0 0 0 0 127 0" result="hardAlpha"/>
<feOffset dx="-1.31611" dy="1.05289"/>
<feComposite in2="hardAlpha" operator="arithmetic" k2="-1" k3="1"/>
<feColorMatrix type="matrix" values="0 0 0 0 0.85 0 0 0 0 0.85411 0 0 0 0 1 0 0 0 0.25 0"/>
<feBlend mode="normal" in2="shape" result="effect1_innerShadow_560_50"/>
</filter>
<filter id="filter1_i_560_50" x="8.0885" y="20.5479" width="31.1805" height="16.8398" filterUnits="userSpaceOnUse" color-interpolation-filters="sRGB">
<feFlood flood-opacity="0" result="BackgroundImageFix"/>
<feBlend mode="normal" in="SourceGraphic" in2="BackgroundImageFix" result="shape"/>
<feColorMatrix in="SourceAlpha" type="matrix" values="0 0 0 0 0 0 0 0 0 0 0 0 0 0 0 0 0 0 127 0" result="hardAlpha"/>
<feOffset dx="1.31611" dy="0.789669"/>
<feComposite in2="hardAlpha" operator="arithmetic" k2="-1" k3="1"/>
<feColorMatrix type="matrix" values="0 0 0 0 0.427451 0 0 0 0 0.443137 0 0 0 0 1 0 0 0 0.29 0"/>
<feBlend mode="normal" in2="shape" result="effect1_innerShadow_560_50"/>
</filter>
<filter id="filter2_f_560_50" x="12.8534" y="10.5376" width="36.752" height="36.9693" filterUnits="userSpaceOnUse" color-interpolation-filters="sRGB">
<feFlood flood-opacity="0" result="BackgroundImageFix"/>
<feBlend mode="normal" in="SourceGraphic" in2="BackgroundImageFix" result="shape"/>
<feGaussianBlur stdDeviation="6.58058" result="effect1_foregroundBlur_560_50"/>
</filter>
<filter id="filter3_f_560_50" x="-1.48744" y="13.145" width="35.3396" height="35.7745" filterUnits="userSpaceOnUse" color-interpolation-filters="sRGB">
<feFlood flood-opacity="0" result="BackgroundImageFix"/>
<feBlend mode="normal" in="SourceGraphic" in2="BackgroundImageFix" result="shape"/>
<feGaussianBlur stdDeviation="6.58058" result="effect1_foregroundBlur_560_50"/>
</filter>
<filter id="filter4_i_560_50" x="11.6737" y="23.8071" width="24.01" height="10.3213" filterUnits="userSpaceOnUse" color-interpolation-filters="sRGB">
<feFlood flood-opacity="0" result="BackgroundImageFix"/>
<feBlend mode="normal" in="SourceGraphic" in2="BackgroundImageFix" result="shape"/>
<feColorMatrix in="SourceAlpha" type="matrix" values="0 0 0 0 0 0 0 0 0 0 0 0 0 0 0 0 0 0 127 0" result="hardAlpha"/>
<feOffset dx="1.05289" dy="1.57934"/>
<feComposite in2="hardAlpha" operator="arithmetic" k2="-1" k3="1"/>
<feColorMatrix type="matrix" values="0 0 0 0 0 0 0 0 0 0 0 0 0 0 0 0 0 0 0.25 0"/>
<feBlend mode="normal" in2="shape" result="effect1_innerShadow_560_50"/>
</filter>
<filter id="filter5_i_560_50" x="13.1857" y="38.4468" width="21.6364" height="20.8057" filterUnits="userSpaceOnUse" color-interpolation-filters="sRGB">
<feFlood flood-opacity="0" result="BackgroundImageFix"/>
<feBlend mode="normal" in="SourceGraphic" in2="BackgroundImageFix" result="shape"/>
<feColorMatrix in="SourceAlpha" type="matrix" values="0 0 0 0 0 0 0 0 0 0 0 0 0 0 0 0 0 0 127 0" result="hardAlpha"/>
<feOffset dx="-5.26446" dy="0.526446"/>
<feComposite in2="hardAlpha" operator="arithmetic" k2="-1" k3="1"/>
<feColorMatrix type="matrix" values="0 0 0 0 0.427451 0 0 0 0 0.443137 0 0 0 0 1 0 0 0 0.45 0"/>
<feBlend mode="normal" in2="shape" result="effect1_innerShadow_560_50"/>
</filter>
<linearGradient id="paint0_linear_560_50" x1="23.9841" y1="0.0318508" x2="23.9841" y2="48" gradientUnits="userSpaceOnUse">
<stop stop-color="#A5D9FF"/>
<stop offset="1" stop-color="#AB80FF"/>
</linearGradient>
<linearGradient id="paint1_linear_560_50" x1="24.0159" y1="0.000112534" x2="24.0159" y2="47.9683" gradientUnits="userSpaceOnUse">
<stop stop-color="#A5D9FF"/>
<stop offset="1" stop-color="#AB80FF"/>
</linearGradient>
</defs>
</svg>