<svg width="215" height="48" viewBox="0 0 215 48" fill="none" xmlns="http://www.w3.org/2000/svg">
<path d="M70.088 19.8V31H73.096V27.88H74.552C77.032 27.88 78.632 26.296 78.632 23.848C78.632 21.384 77.032 19.8 74.552 19.8H70.088ZM73.064 25.208V22.536H74.264C75.128 22.536 75.624 23.064 75.624 23.88C75.624 24.68 75.128 25.208 74.264 25.208H73.064ZM82.9703 26.68H86.9862V24.104H82.9703V22.424H87.3223V19.8H79.9943V31H87.4503V28.328H82.9703V26.68ZM88.5079 19.8V22.552H91.3239V31H94.3479V22.552H97.1479V19.8H88.5079ZM101.564 26.68H105.58V24.104H101.564V22.424H105.916V19.8H98.588V31H106.044V28.328H101.564V26.68ZM114.158 26.84C115.534 26.312 116.318 25.128 116.318 23.528C116.318 21.224 114.734 19.8 112.11 19.8H107.854V31H110.846V27.032L113.502 31H116.798V30.664L114.158 26.84ZM110.83 22.552H112.03C112.846 22.552 113.326 22.984 113.326 23.768C113.326 24.552 112.846 24.968 112.03 24.968H110.83V22.552Z" fill="white"/>
<path d="M121.524 19.8V22.552H124.34V31H127.364V22.552H130.164V19.8H121.524ZM132.948 21.816C133.876 21.816 134.548 21.192 134.548 20.312C134.548 19.432 133.876 18.808 132.948 18.808C132.004 18.808 131.348 19.432 131.348 20.312C131.348 21.192 132.004 21.816 132.948 21.816ZM134.372 31V22.52H131.54V31H134.372ZM141.519 22.344C140.495 22.344 139.583 22.696 138.879 23.272L138.783 22.52H136.399V33.672H139.231V30.504C139.887 30.936 140.671 31.176 141.519 31.176C144.047 31.176 145.695 29.224 145.695 26.76C145.695 24.184 143.951 22.344 141.519 22.344ZM141.039 28.616C139.967 28.616 139.199 27.848 139.199 26.76C139.199 25.672 139.967 24.904 141.039 24.904C142.111 24.904 142.879 25.672 142.879 26.76C142.879 27.848 142.111 28.616 141.039 28.616ZM152.316 22.344C151.292 22.344 150.38 22.696 149.676 23.272L149.58 22.52H147.196V33.672H150.028V30.504C150.684 30.936 151.468 31.176 152.316 31.176C154.844 31.176 156.492 29.224 156.492 26.76C156.492 24.184 154.748 22.344 152.316 22.344ZM151.836 28.616C150.764 28.616 149.996 27.848 149.996 26.76C149.996 25.672 150.764 24.904 151.836 24.904C152.908 24.904 153.676 25.672 153.676 26.76C153.676 27.848 152.908 28.616 151.836 28.616ZM159.401 21.816C160.329 21.816 161.001 21.192 161.001 20.312C161.001 19.432 160.329 18.808 159.401 18.808C158.457 18.808 157.801 19.432 157.801 20.312C157.801 21.192 158.457 21.816 159.401 21.816ZM160.825 31V22.52H157.993V31H160.825ZM168.148 22.36C167.108 22.36 166.18 22.744 165.556 23.48L165.46 22.52H162.852V31H165.684V26.392C165.684 25.432 166.292 24.888 167.22 24.888C168.052 24.888 168.516 25.4 168.516 26.344V31H171.364V26.024C171.364 23.816 170.34 22.36 168.148 22.36ZM179.338 23.224C178.65 22.648 177.77 22.328 176.762 22.328C174.442 22.328 172.73 24.104 172.73 26.424C172.73 28.808 174.474 30.44 176.762 30.44C177.61 30.44 178.378 30.216 179.002 29.816V30.024C179.002 31.032 178.218 31.528 177.178 31.528C176.474 31.528 175.882 31.304 175.738 30.76H173.002C173.226 32.904 174.954 33.88 177.274 33.88C179.898 33.88 181.818 32.44 181.818 29.608V22.52H179.434L179.338 23.224ZM177.274 28.168C176.218 28.168 175.546 27.464 175.546 26.488C175.546 25.512 176.218 24.824 177.274 24.824C178.33 24.824 179.018 25.512 179.018 26.488C179.018 27.464 178.33 28.168 177.274 28.168ZM195.334 25.096C195.99 24.568 196.374 23.752 196.374 22.84C196.374 21.016 195.014 19.8 193.03 19.8H188.166V31H193.11C195.366 31 196.822 29.704 196.822 27.784C196.822 26.648 196.262 25.656 195.334 25.096ZM192.55 22.264C193.174 22.264 193.526 22.6 193.526 23.176C193.526 23.736 193.174 24.056 192.55 24.056H191.03V22.264H192.55ZM191.03 28.424V26.408H192.854C193.478 26.408 193.846 26.792 193.846 27.416C193.846 28.024 193.478 28.424 192.854 28.424H191.03ZM202.354 31.192C205.058 31.192 207.01 29.336 207.01 26.76C207.01 24.168 205.058 22.328 202.354 22.328C199.65 22.328 197.698 24.168 197.698 26.76C197.698 29.336 199.65 31.192 202.354 31.192ZM202.354 28.616C201.314 28.616 200.53 27.848 200.53 26.76C200.53 25.672 201.314 24.904 202.354 24.904C203.41 24.904 204.178 25.672 204.178 26.76C204.178 27.848 203.41 28.616 202.354 28.616ZM213.056 28.744C212.288 28.744 211.856 28.488 211.856 27.64V24.856H213.728V22.52H211.856V20.504L209.008 20.792V22.52H207.616V24.856H209.008V28.04C209.008 30.2 210.288 31.176 212.24 31.176C212.736 31.176 213.264 31.112 213.84 31V28.696C213.568 28.728 213.296 28.744 213.056 28.744Z" fill="#6D71FF"/>
<circle cx="23.9841" cy="24.0159" r="23.9841" transform="rotate(-90 23.9841 24.0159)" fill="url(#paint0_linear_560_50)"/>
<mask id="mask0_560_50" style="mask-type:alpha" maskUnits="userSpaceOnUse" x="0" y="0" width="48" height="48">
<circle cx="24.0159" cy="23.9842" r="23.9841" transform="rotate(-90 24.0159 23.9842)" fill="url(#paint1_linear_560_50)"/>
</mask>
<g mask="url(#mask0_560_50)">
<rect x="23.1897" y="16.2021" width="0.869142" height="3.15064" rx="0.434571" fill="#C2C4FF"/>
<g filter="url(#filter0_i_560_50)">
<circle cx="38.5083" cy="28.9133" r="3.58521" fill="#6D71FF"/>
</g>
<circle cx="9.06629" cy="28.9133" r="3.58521" fill="#6D71FF"/>
<circle cx="23.6244" cy="22.5032" r="3.58521" fill="#6D71FF"/>
<g filter="url(#filter1_i_560_50)">
<rect x="8.0885" y="20.5479" width="31.1805" height="16.8396" rx="8.41982" fill="white"/>
</g>
<rect x="8.22011" y="20.6795" width="30.9173" height="16.5764" rx="8.28821" stroke="#797CFF" stroke-width="0.263223"/>
<g filter="url(#filter2_f_560_50)">
<ellipse cx="31.2294" cy="29.0222" rx="5.21485" ry="5.3235" fill="#C6C7FF" fill-opacity="0.8"/>
</g>
<g filter="url(#filter3_f_560_50)">
<ellipse cx="16.1824" cy="31.0321" rx="4.50868" ry="4.72596" fill="#C6C7FF" fill-opacity="0.8"/>
</g>
<g filter="url(#filter4_i_560_50)">
<rect x="11.6737" y="23.8071" width="24.0101" height="10.3211" rx="5.16053" fill="#DEDFFF"/>
</g>
<rect x="11.8053" y="23.9387" width="23.7468" height="10.0578" rx="5.02892" stroke="#6D71FF" stroke-width="0.263223"/>
<circle cx="17.0515" cy="28.9677" r="1.03211" fill="#6D71FF"/>
<circle cx="30.0886" cy="28.9677" r="1.03211" fill="#6D71FF"/>
<circle cx="23.6786" cy="14.4095" r="1.03211" fill="#6D71FF"/>
<circle cx="24.2218" cy="14.0834" r="0.162964" fill="#DEDFFF"/>
<path d="M21.7775 30.543C21.8636 31.8636 25.0298 32.1141 25.4713 30.543" stroke="#6D71FF" stroke-width="1.05289" stroke-linecap="round"/>
<g filter="url(#filter5_i_560_50)">
<path d="M30.7538 55.3556C27.7539 60.5517 20.2539 60.5517 17.2539 55.3556L14.2415 50.138C11.2415 44.9418 14.9915 38.4467 20.9915 38.4467L27.0162 38.4467C33.0162 38.4467 36.7662 44.9418 33.7662 50.138L30.7538 55.3556Z" fill="#FDFDFF"/>
</g>
<path d="M30.6399 55.2898C27.6905 60.3982 20.3172 60.3981 17.3679 55.2897L14.3555 50.0722C11.4062 44.9638 15.0928 38.5783 20.9915 38.5783L27.0162 38.5783C32.9149 38.5783 36.6016 44.9638 33.6522 50.0722L30.6399 55.2898Z" stroke="#6D71FF" stroke-width="0.263223"/>
</g>
<path d="M37.9777 12.8409C38.0199 12.6966 38.2243 12.6966 38.2665 12.8409L38.8847 14.955C38.8991 15.0043 38.9377 15.0428 38.9869 15.0572L41.101 15.6754C41.2453 15.7176 41.2453 15.922 41.101 15.9642L38.9869 16.5825C38.9377 16.5969 38.8991 16.6354 38.8847 16.6847L38.2665 18.7988C38.2243 18.9431 38.0199 18.9431 37.9777 18.7988L37.3594 16.6847C37.345 16.6354 37.3065 16.5969 37.2573 16.5825L35.1432 15.9642C34.9989 15.922 34.9989 15.7176 35.1432 15.6754L37.2573 15.0572C37.3065 15.0428 37.345 15.0043 37.3594 14.955L37.9777 12.8409Z" fill="white"/>
<path d="M19.3797 4.19784C19.4219 4.05356 19.6263 4.05356 19.6685 4.19784L20.2867 6.31195C20.3011 6.3612 20.3396 6.39971 20.3889 6.41411L22.503 7.03238C22.6473 7.07457 22.6473 7.27897 22.503 7.32116L20.3889 7.93943C20.3396 7.95383 20.3011 7.99234 20.2867 8.04159L19.6685 10.1557C19.6263 10.3 19.4219 10.3 19.3797 10.1557L18.7614 8.04159C18.747 7.99234 18.7085 7.95383 18.6592 7.93943L16.5451 7.32116C16.4008 7.27897 16.4008 7.07457 16.5451 7.03238L18.6592 6.41411C18.7085 6.39971 18.747 6.3612 18.7614 6.31195L19.3797 4.19784Z" fill="white"/>
<path d="M9.55321 14.286C9.58041 14.193 9.71213 14.193 9.73932 14.286L10.1378 15.6484C10.147 15.6801 10.1719 15.7049 10.2036 15.7142L11.566 16.1127C11.659 16.1399 11.659 16.2716 11.566 16.2988L10.2036 16.6972C10.1719 16.7065 10.147 16.7313 10.1378 16.763L9.73932 18.1255C9.71213 18.2185 9.58041 18.2185 9.55321 18.1255L9.15478 16.763C9.14549 16.7313 9.12068 16.7065 9.08894 16.6972L7.72651 16.2988C7.63353 16.2716 7.63353 16.1399 7.72651 16.1127L9.08894 15.7142C9.12068 15.7049 9.14549 15.6801 9.15478 15.6484L9.55321 14.286Z" fill="white"/>
<defs>
<filter id="filter0_i_560_50" x="34.9231" y="25.3281" width="7.17041" height="7.17041" filterUnits="userSpaceOnUse" color-interpolation-filters="sRGB">
<feFlood flood-opacity="0" result="BackgroundImageFix"/>
<feBlend mode="normal" in="SourceGraphic" in2="BackgroundImageFix" result="shape"/>
<feColorMatrix in="SourceAlpha" type="matrix" values="0 0 0 0 0 0 0 0 0 0 0 0 0 0 0 0 0 0 127 0" result="hardAlpha"/>
<feOffset dx="-1.31611" dy="1.05289"/>
<feComposite in2="hardAlpha" operator="arithmetic" k2="-1" k3="1"/>
<feColorMatrix type="matrix" values="0 0 0 0 0.85 0 0 0 0 0.85411 0 0 0 0 1 0 0 0 0.25 0"/>
<feBlend mode="normal" in2="shape" result="effect1_innerShadow_560_50"/>
</filter>
<filter id="filter1_i_560_50" x="8.0885" y="20.5479" width="31.1805" height="16.8398" filterUnits="userSpaceOnUse" color-interpolation-filters="sRGB">
<feFlood flood-opacity="0" result="BackgroundImageFix"/>
<feBlend mode="normal" in="SourceGraphic" in2="BackgroundImageFix" result="shape"/>
<feColorMatrix in="SourceAlpha" type="matrix" values="0 0 0 0 0 0 0 0 0 0 0 0 0 0 0 0 0 0 127 0" result="hardAlpha"/>
<feOffset dx="1.31611" dy="0.789669"/>
<feComposite in2="hardAlpha" operator="arithmetic" k2="-1" k3="1"/>
<feColorMatrix type="matrix" values="0 0 0 0 0.427451 0 0 0 0 0.443137 0 0 0 0 1 0 0 0 0.29 0"/>
<feBlend mode="normal" in2="shape" result="effect1_innerShadow_560_50"/>
</filter>
<filter id="filter2_f_560_50" x="12.8534" y="10.5376" width="36.752" height="36.9693" filterUnits="userSpaceOnUse" color-interpolation-filters="sRGB">
<feFlood flood-opacity="0" result="BackgroundImageFix"/>
<feBlend mode="normal" in="SourceGraphic" in2="BackgroundImageFix" result="shape"/>
<feGaussianBlur stdDeviation="6.58058" result="effect1_foregroundBlur_560_50"/>
</filter>
<filter id="filter3_f_560_50" x="-1.48744" y="13.145" width="35.3396" height="35.7745" filterUnits="userSpaceOnUse" color-interpolation-filters="sRGB">
<feFlood flood-opacity="0" result="BackgroundImageFix"/>
<feBlend mode="normal" in="SourceGraphic" in2="BackgroundImageFix" result="shape"/>
<feGaussianBlur stdDeviation="6.58058" result="effect1_foregroundBlur_560_50"/>
</filter>
<filter id="filter4_i_560_50" x="11.6737" y="23.8071" width="24.01" height="10.3213" filterUnits="userSpaceOnUse" color-interpolation-filters="sRGB">
<feFlood flood-opacity="0" result="BackgroundImageFix"/>
<feBlend mode="normal" in="SourceGraphic" in2="BackgroundImageFix" result="shape"/>
<feColorMatrix in="SourceAlpha" type="matrix" values="0 0 0 0 0 0 0 0 0 0 0 0 0 0 0 0 0 0 127 0" result="hardAlpha"/>
<feOffset dx="1.05289" dy="1.57934"/>
<feComposite in2="hardAlpha" operator="arithmetic" k2="-1" k3="1"/>
<feColorMatrix type="matrix" values="0 0 0 0 0 0 0 0 0 0 0 0 0 0 0 0 0 0 0.25 0"/>
<feBlend mode="normal" in2="shape" result="effect1_innerShadow_560_50"/>
</filter>
<filter id="filter5_i_560_50" x="13.1857" y="38.4468" width="21.6364" height="20.8057" filterUnits="userSpaceOnUse" color-interpolation-filters="sRGB">
<feFlood flood-opacity="0" result="BackgroundImageFix"/>
<feBlend mode="normal" in="SourceGraphic" in2="BackgroundImageFix" result="shape"/>
<feColorMatrix in="SourceAlpha" type="matrix" values="0 0 0 0 0 0 0 0 0 0 0 0 0 0 0 0 0 0 127 0" result="hardAlpha"/>
<feOffset dx="-5.26446" dy="0.526446"/>
<feComposite in2="hardAlpha" operator="arithmetic" k2="-1" k3="1"/>
<feColorMatrix type="matrix" values="0 0 0 0 0.427451 0 0 0 0 0.443137 0 0 0 0 1 0 0 0 0.45 0"/>
<feBlend mode="normal" in2="shape" result="effect1_innerShadow_560_50"/>
</filter>
<linearGradient id="paint0_linear_560_50" x1="23.9841" y1="0.0318508" x2="23.9841" y2="48" gradientUnits="userSpaceOnUse">
<stop stop-color="#A5D9FF"/>
<stop offset="1" stop-color="#AB80FF"/>
</linearGradient>
<linearGradient id="paint1_linear_560_50" x1="24.0159" y1="0.000112534" x2="24.0159" y2="47.9683" gradientUnits="userSpaceOnUse">
<stop stop-color="#A5D9FF"/>
<stop offset="1" stop-color="#AB80FF"/>
</linearGradient>
</defs>
</svg>
